<svg width="88" height="48" viewBox="0 0 88 48" fill="none" xmlns="http://www.w3.org/2000/svg">
<path fill-rule="evenodd" clip-rule="evenodd" d="M1.36579 32.0004C0.481285 29.4981 0 26.8052 0 24C0 21.1951 0.481177 18.5025 1.36549 16.0004C4.66006 6.67867 13.5501 0 24 0C32.4311 0 37.2574 1.88608 44 6.93616C50.7426 1.88608 55.5689 0 64 0C74.4499 0 83.34 6.67867 86.6345 16.0004C87.5188 18.5025 88 21.1951 88 24C88 26.6924 87.5567 29.2812 86.739 31.6975C86.7047 31.7988 86.6698 31.8997 86.6342 32.0004C83.3394 41.3217 74.4496 48 64 48C55.5767 48 50.7451 46.1159 44 41.0712C37.2549 46.1159 32.4233 48 24 48C13.5504 48 4.66059 41.3217 1.36579 32.0004ZM10.1407 32.0002L24 32C29.6094 32.0002 32.9209 32.991 37.3394 36.008C32.9298 39.0121 29.6122 40 24 40C18.0778 40 12.9072 36.7825 10.1407 32.0002ZM50.6606 36.008C55.0702 39.0121 58.3878 40 64 40C69.9222 40 75.0928 36.7825 77.8593 32.0002L64 32C58.3906 32.0002 55.0791 32.991 50.6606 36.008ZM77.8596 16.0003C75.0932 11.2177 69.9224 8 64 8C58.3832 8 55.0701 8.98825 50.6576 11.9998C55.07 15.0114 58.3834 15.9998 64 16L77.8596 16.0003ZM37.3424 11.9998C32.93 15.0114 29.6166 15.9998 24 16L10.1404 16.0003C12.9068 11.2177 18.0776 8 24 8C29.6168 8 32.9299 8.98825 37.3424 11.9998ZM44 17.0635C50.7425 22.1135 55.569 23.9998 64 24C55.5803 24.0002 50.7556 25.8883 44 30.9472C37.2444 25.8883 32.4197 24.0002 24 24C32.431 23.9998 37.2575 22.1135 44 17.0635Z" fill="black"/>
</svg>
